<?xml version="1.0" standalone="no"?>
<!DOCTYPE svg PUBLIC "-//W3C//DTD SVG 20010904//EN"
 "http://www.w3.org/TR/2001/REC-SVG-20010904/DTD/svg10.dtd">
<svg version="1.0" xmlns="http://www.w3.org/2000/svg"
 width="502.000000pt" height="497.000000pt" viewBox="0 0 502.000000 497.000000"
 preserveAspectRatio="xMidYMid meet">

<g transform="translate(0.000000,497.000000) scale(0.100000,-0.100000)"
fill="#000000" stroke="none">
<path d="M2338 3926 l5 -105 -29 -6 c-73 -16 -184 -45 -208 -55 -15 -5 -31
-10 -36 -10 -5 0 -32 41 -60 90 l-52 91 -51 -30 c-158 -89 -303 -174 -309
-179 -4 -4 16 -45 43 -90 27 -46 49 -85 49 -87 0 -8 -202 -200 -208 -198 -4 1
-43 22 -86 47 -44 25 -83 43 -87 40 -4 -2 -31 -46 -60 -97 -29 -50 -74 -129
-102 -175 -27 -46 -47 -84 -46 -86 38 -25 62 -33 102 -32 46 1 47 1 47 -31 0
-17 5 -33 11 -35 7 -2 7 -12 0 -31 -6 -16 -11 -46 -11 -67 0 -22 -5 -40 -13
-43 -7 -3 -21 -40 -31 -83 -17 -77 -17 -84 3 -269 12 -104 24 -209 27 -232 5
-32 3 -42 -9 -45 -13 -2 -11 -16 10 -88 14 -47 26 -94 27 -104 1 -14 -20 -32
-76 -65 -42 -25 -79 -49 -83 -52 -6 -6 175 -333 196 -354 10 -10 27 -2 146 66
l42 24 63 -66 c35 -36 77 -76 93 -90 17 -13 34 -29 38 -36 4 -6 -16 -50 -44
-98 -43 -73 -49 -89 -38 -100 8 -7 73 -47 144 -88 72 -41 146 -84 166 -96 42
-25 36 -30 104 87 28 50 53 81 60 78 25 -9 151 -44 203 -56 l52 -12 0 -109 0
-109 216 0 215 0 -7 104 c-4 66 -3 105 4 110 5 3 59 19 118 35 60 16 118 32
129 35 17 5 27 -7 64 -74 25 -45 50 -88 56 -97 10 -14 34 -3 188 87 97 56 179
105 181 109 3 4 -17 45 -44 90 -28 45 -50 87 -50 92 0 8 188 199 196 199 1 0
41 -22 89 -50 48 -28 90 -50 93 -50 8 0 202 339 205 355 0 6 -31 28 -70 50
-106 60 -104 59 -87 108 8 23 25 82 38 132 19 77 26 90 46 95 17 4 29 19 42
50 39 99 126 326 132 348 7 22 6 22 -94 22 -72 0 -101 4 -104 13 -16 64 -59
236 -63 249 -4 12 16 29 76 64 45 26 84 51 87 56 3 5 -21 55 -54 111 -33 56
-78 135 -101 175 -23 39 -46 72 -52 72 -5 0 -44 -20 -87 -45 -42 -25 -80 -45
-85 -45 -5 0 -53 44 -107 98 l-99 97 51 87 c27 48 47 91 44 96 -7 12 -338 202
-352 202 -5 0 -32 -39 -59 -86 -45 -77 -52 -85 -75 -80 -14 2 -74 18 -135 34
l-110 29 -3 107 -3 106 -213 0 -213 0 5 -104z m463 -390 c370 -94 655 -354
774 -705 l22 -66 51 -6 c53 -7 177 -42 201 -58 11 -7 10 -20 -9 -76 -18 -54
-25 -65 -39 -59 -35 15 -118 41 -150 47 -28 6 -32 4 -27 -9 3 -9 6 -26 6 -38
0 -21 6 -24 60 -29 126 -11 200 -78 185 -167 -15 -90 -86 -144 -209 -157 l-68
-8 -32 -90 c-124 -347 -425 -609 -796 -693 -94 -21 -336 -23 -430 -3 -404 84
-706 358 -834 755 -30 91 -33 97 -39 68 l-6 -32 -91 0 c-60 0 -90 4 -90 11 0
15 177 474 200 519 10 19 28 64 40 100 12 36 26 69 31 74 5 6 9 25 9 42 0 22
9 42 28 61 15 15 45 54 67 87 164 241 456 418 750 456 112 14 288 4 396 -24z
m-1443 -508 c4 -23 7 -22 41 3 36 27 82 19 112 -19 30 -39 22 -117 -15 -149
-31 -27 -72 -30 -104 -7 -22 15 -22 15 -22 -40 l0 -56 -40 0 -40 0 0 143 0
142 32 0 c23 0 34 -5 36 -17z"/>
<path d="M3630 2395 c0 -19 5 -35 11 -35 20 0 49 21 49 35 0 14 -29 35 -49 35
-6 0 -11 -16 -11 -35z"/>
<path d="M1382 2978 c-30 -30 -1 -83 38 -70 32 11 39 42 14 66 -19 19 -36 20
-52 4z"/>
<path d="M1032 2579 c-16 -57 -42 -213 -42 -249 0 -43 2 -48 25 -52 14 -3 27
-3 28 1 2 3 0 74 -3 156 -4 83 -7 147 -8 144z"/>
</g>
</svg>
